<svg width="42" height="41" viewBox="0 0 42 41" fill="none" xmlns="http://www.w3.org/2000/svg">
<path d="M1 20.501C1 9.45528 9.9543 0.500977 21 0.500977C32.0457 0.500977 41 9.45528 41 20.501C41 31.5467 32.0457 40.501 21 40.501C9.9543 40.501 1 31.5467 1 20.501Z" stroke="white"/>
<g clip-path="url(#clip0_2162_3592)">
<path d="M25.8127 18.5635H24.0627H23.4377V17.9385V16.001V15.376H24.0627H25.3752C25.719 15.376 26.0002 15.126 26.0002 14.751V11.4385C26.0002 11.0947 25.7502 10.8135 25.3752 10.8135H23.094C20.6252 10.8135 18.9065 12.5635 18.9065 15.1572V17.876V18.501H18.2815H16.1565C15.719 18.501 15.3127 18.8447 15.3127 19.3447V21.5947C15.3127 22.0322 15.6565 22.4385 16.1565 22.4385H18.219H18.844V23.0635V29.3447C18.844 29.7822 19.1877 30.1885 19.6877 30.1885H22.6252C22.8127 30.1885 22.969 30.0947 23.094 29.9697C23.219 29.8447 23.3127 29.626 23.3127 29.4385V23.0947V22.4697H23.969H25.3752C25.7815 22.4697 26.094 22.2197 26.1565 21.8447V21.8135V21.7822L26.594 19.626C26.6252 19.4072 26.594 19.1572 26.4065 18.9072C26.344 18.751 26.0627 18.5947 25.8127 18.5635Z" fill="white"/>
</g>
<defs>
<clipPath id="clip0_2162_3592">
<rect width="20" height="20" fill="white" transform="translate(11 10.501)"/>
</clipPath>
</defs>
</svg>
