<svg width="42" height="41" viewBox="0 0 42 41" fill="none" xmlns="http://www.w3.org/2000/svg">
<path d="M1 20.501C1 9.45528 9.9543 0.500977 21 0.500977C32.0457 0.500977 41 9.45528 41 20.501C41 31.5467 32.0457 40.501 21 40.501C9.9543 40.501 1 31.5467 1 20.501Z" stroke="white"/>
<g clip-path="url(#clip0_2162_3635)">
<g clip-path="url(#clip1_2162_3635)">
<path d="M21 10.501C18.2863 10.501 17.945 10.5135 16.8787 10.561C15.8125 10.611 15.0862 10.7785 14.45 11.026C13.7823 11.2764 13.1777 11.6702 12.6788 12.1797C12.1692 12.6787 11.7754 13.2833 11.525 13.951C11.2775 14.586 11.1088 15.3135 11.06 16.376C11.0125 17.4447 11 17.7847 11 20.5022C11 23.2172 11.0125 23.5572 11.06 24.6235C11.11 25.6885 11.2775 26.4147 11.525 27.051C11.7812 27.7085 12.1225 28.266 12.6788 28.8222C13.2338 29.3785 13.7912 29.721 14.4488 29.976C15.0863 30.2235 15.8113 30.3922 16.8763 30.441C17.9438 30.4885 18.2838 30.501 21 30.501C23.7163 30.501 24.055 30.4885 25.1225 30.441C26.1863 30.391 26.915 30.2235 27.5513 29.976C28.2185 29.7254 28.8227 29.3316 29.3212 28.8222C29.8775 28.266 30.2188 27.7085 30.475 27.051C30.7213 26.4147 30.89 25.6885 30.94 24.6235C30.9875 23.5572 31 23.2172 31 20.501C31 17.7847 30.9875 17.4447 30.94 16.3772C30.89 15.3135 30.7213 14.586 30.475 13.951C30.2246 13.2833 29.8308 12.6787 29.3212 12.1797C28.8223 11.6702 28.2177 11.2764 27.55 11.026C26.9125 10.7785 26.185 10.6097 25.1213 10.561C24.0538 10.5135 23.715 10.501 20.9975 10.501H21ZM20.1038 12.3035H21.0013C23.6713 12.3035 23.9875 12.3122 25.0413 12.361C26.0162 12.4047 26.5462 12.5685 26.8988 12.7047C27.365 12.886 27.6987 13.1035 28.0487 13.4535C28.3988 13.8035 28.615 14.136 28.7963 14.6035C28.9338 14.9547 29.0963 15.4847 29.14 16.4597C29.1887 17.5135 29.1987 17.8297 29.1987 20.4985C29.1987 23.1672 29.1887 23.4847 29.14 24.5385C29.0963 25.5135 28.9325 26.0422 28.7963 26.3947C28.6348 26.8284 28.3791 27.2207 28.0475 27.5435C27.6975 27.8935 27.365 28.1097 26.8975 28.291C26.5475 28.4285 26.0175 28.591 25.0413 28.636C23.9875 28.6835 23.6713 28.6947 21.0013 28.6947C18.3313 28.6947 18.0138 28.6835 16.96 28.636C15.985 28.591 15.4563 28.4285 15.1038 28.291C14.6698 28.13 14.277 27.8747 13.9537 27.5435C13.6216 27.2205 13.3654 26.8277 13.2038 26.3935C13.0675 26.0422 12.9038 25.5122 12.86 24.5372C12.8125 23.4835 12.8025 23.1672 12.8025 20.496C12.8025 17.8247 12.8125 17.511 12.86 16.4572C12.905 15.4822 13.0675 14.9522 13.205 14.5997C13.3863 14.1335 13.6037 13.7997 13.9537 13.4497C14.3037 13.0997 14.6363 12.8835 15.1038 12.7022C15.4563 12.5647 15.985 12.4022 16.96 12.3572C17.8825 12.3147 18.24 12.3022 20.1038 12.301V12.3035ZM26.3387 13.9635C26.1812 13.9635 26.0251 13.9945 25.8795 14.0548C25.7339 14.1151 25.6017 14.2035 25.4902 14.3149C25.3788 14.4264 25.2904 14.5587 25.2301 14.7043C25.1698 14.8498 25.1388 15.0059 25.1388 15.1635C25.1388 15.3211 25.1698 15.4771 25.2301 15.6227C25.2904 15.7683 25.3788 15.9006 25.4902 16.012C25.6017 16.1234 25.7339 16.2118 25.8795 16.2721C26.0251 16.3324 26.1812 16.3635 26.3387 16.3635C26.657 16.3635 26.9622 16.237 27.1873 16.012C27.4123 15.787 27.5387 15.4817 27.5387 15.1635C27.5387 14.8452 27.4123 14.54 27.1873 14.3149C26.9622 14.0899 26.657 13.9635 26.3387 13.9635ZM21.0013 15.366C20.3201 15.3553 19.6436 15.4803 19.0112 15.7337C18.3788 15.987 17.8031 16.3636 17.3177 16.8415C16.8322 17.3194 16.4467 17.8892 16.1836 18.5176C15.9204 19.1459 15.7849 19.8204 15.7849 20.5016C15.7849 21.1828 15.9204 21.8573 16.1836 22.4857C16.4467 23.114 16.8322 23.6838 17.3177 24.1617C17.8031 24.6396 18.3788 25.0162 19.0112 25.2695C19.6436 25.5229 20.3201 25.6479 21.0013 25.6372C22.3494 25.6162 23.6353 25.0659 24.5812 24.105C25.5272 23.1442 26.0574 21.8499 26.0574 20.5016C26.0574 19.1533 25.5272 17.859 24.5812 16.8982C23.6353 15.9373 22.3494 15.387 21.0013 15.366ZM21.0013 17.1672C21.439 17.1672 21.8726 17.2535 22.277 17.421C22.6815 17.5885 23.049 17.8341 23.3586 18.1437C23.6681 18.4532 23.9137 18.8207 24.0812 19.2252C24.2488 19.6297 24.335 20.0632 24.335 20.501C24.335 20.9388 24.2488 21.3723 24.0812 21.7767C23.9137 22.1812 23.6681 22.5487 23.3586 22.8583C23.049 23.1679 22.6815 23.4134 22.277 23.581C21.8726 23.7485 21.439 23.8347 21.0013 23.8347C20.1171 23.8347 19.2691 23.4835 18.6439 22.8583C18.0187 22.2331 17.6675 21.3851 17.6675 20.501C17.6675 19.6168 18.0187 18.7689 18.6439 18.1437C19.2691 17.5185 20.1171 17.1672 21.0013 17.1672Z" fill="white"/>
</g>
</g>
<defs>
<clipPath id="clip0_2162_3635">
<rect width="20" height="20" fill="white" transform="translate(11 10.501)"/>
</clipPath>
<clipPath id="clip1_2162_3635">
<rect width="20" height="20" fill="white" transform="translate(11 10.501)"/>
</clipPath>
</defs>
</svg>
