<svg width="12" height="14" viewBox="0 0 12 14" fill="none" xmlns="http://www.w3.org/2000/svg">
<path d="M5.99996 6.99992C6.36663 6.99992 6.68051 6.86936 6.94163 6.60825C7.20274 6.34714 7.33329 6.03325 7.33329 5.66659C7.33329 5.29992 7.20274 4.98603 6.94163 4.72492C6.68051 4.46381 6.36663 4.33325 5.99996 4.33325C5.63329 4.33325 5.3194 4.46381 5.05829 4.72492C4.79718 4.98603 4.66663 5.29992 4.66663 5.66659C4.66663 6.03325 4.79718 6.34714 5.05829 6.60825C5.3194 6.86936 5.63329 6.99992 5.99996 6.99992ZM5.99996 11.8999C7.35551 10.6555 8.36107 9.52492 9.01663 8.50825C9.67218 7.49159 9.99996 6.58881 9.99996 5.79992C9.99996 4.58881 9.61385 3.59714 8.84163 2.82492C8.0694 2.0527 7.12218 1.66659 5.99996 1.66659C4.87774 1.66659 3.93051 2.0527 3.15829 2.82492C2.38607 3.59714 1.99996 4.58881 1.99996 5.79992C1.99996 6.58881 2.32774 7.49159 2.98329 8.50825C3.63885 9.52492 4.6444 10.6555 5.99996 11.8999ZM5.99996 13.6666C4.21107 12.1444 2.87496 10.7305 1.99163 9.42492C1.10829 8.11936 0.666626 6.91103 0.666626 5.79992C0.666626 4.13325 1.20274 2.80547 2.27496 1.81659C3.34718 0.827697 4.58885 0.333252 5.99996 0.333252C7.41107 0.333252 8.65274 0.827697 9.72496 1.81659C10.7972 2.80547 11.3333 4.13325 11.3333 5.79992C11.3333 6.91103 10.8916 8.11936 10.0083 9.42492C9.12496 10.7305 7.78885 12.1444 5.99996 13.6666Z" fill="#E7E7E7"/>
</svg>
