<svg width="24" height="24" viewBox="0 0 24 24" fill="none" xmlns="http://www.w3.org/2000/svg">
<path d="M22.5 10.125C22.5 10.4233 22.3815 10.7095 22.1705 10.9205C21.9595 11.1315 21.6734 11.25 21.375 11.25L12 11.25C11.8011 11.25 11.6103 11.329 11.4697 11.4696C11.329 11.6103 11.25 11.8011 11.25 12C11.25 12.1989 11.329 12.3897 11.4697 12.5303C11.6103 12.671 11.8011 12.75 12 12.75H15.7995L15.8055 12.879C15.8235 13.3545 15.8175 13.8345 15.765 14.103C15.7245 14.304 15.621 14.544 15.492 14.775C15.429 14.8905 15.2715 15 15.021 15H12C11.8011 15 11.6103 15.079 11.4697 15.2196C11.329 15.3603 11.25 15.5511 11.25 15.75C11.25 15.9489 11.329 16.1397 11.4697 16.2803C11.6103 16.421 11.8011 16.5 12 16.5H14.3475C14.3531 16.5529 14.3581 16.6059 14.3625 16.659C14.3985 17.133 14.3775 17.535 14.3025 17.721C14.2335 17.898 13.992 18.171 13.6575 18.45C13.5135 18.5715 13.3725 18.675 13.269 18.75H11.25C11.0511 18.75 10.8603 18.829 10.7197 18.9696C10.579 19.1103 10.5 19.3011 10.5 19.5C10.5 19.6989 10.579 19.8897 10.7197 20.0303C10.8603 20.171 11.0511 20.25 11.25 20.25H12.75V20.763C12.75 20.9726 12.7061 21.1799 12.621 21.3715C12.536 21.5631 12.4117 21.7348 12.2562 21.8754C12.1008 22.016 11.9176 22.1225 11.7184 22.188C11.5192 22.2534 11.3086 22.2764 11.1 22.2555L7.0275 21.849C6.50414 21.7965 5.99767 21.6345 5.541 21.3735L1.878 19.281C1.76321 19.2154 1.66779 19.1207 1.60141 19.0063C1.53503 18.892 1.50004 18.7622 1.5 18.63L1.5 9.05248C1.50006 8.92896 1.53063 8.80738 1.58899 8.69852C1.64734 8.58966 1.73167 8.4969 1.8345 8.42848L5.0595 6.27898C5.35859 6.0794 5.70116 5.95441 6.0585 5.91448L10.716 5.39698C10.9027 5.37606 11.0904 5.42595 11.242 5.53677C11.3937 5.64759 11.4982 5.81128 11.535 5.99548L11.835 7.49998L10.5 7.49998C10.3011 7.49998 10.1103 7.57899 9.96967 7.71965C9.82902 7.8603 9.75 8.05106 9.75 8.24998C9.75 8.44889 9.82902 8.63965 9.96967 8.78031C10.1103 8.92096 10.3011 8.99998 10.5 8.99998L21.375 8.99998C21.6734 8.99998 21.9595 9.1185 22.1705 9.32948C22.3815 9.54046 22.5 9.82661 22.5 10.125ZM17.301 12.75L21.375 12.75C22.0712 12.75 22.7389 12.4734 23.2312 11.9811C23.7234 11.4888 24 10.8212 24 10.125C24 9.42878 23.7234 8.7611 23.2312 8.26882C22.7389 7.77654 22.0712 7.49998 21.375 7.49998L13.365 7.49998L13.005 5.69998C12.8944 5.14824 12.581 4.65799 12.1268 4.32589C11.6725 3.9938 11.1103 3.84398 10.551 3.90598L5.892 4.42348C5.29643 4.49003 4.72548 4.69835 4.227 5.03098L1.002 7.18048C0.6938 7.38593 0.441088 7.66429 0.266293 7.99085C0.0914974 8.31741 2.67029e-05 8.68208 0 9.05248L0 18.63C0.000127792 19.0266 0.105082 19.4161 0.304226 19.7591C0.50337 20.102 0.789627 20.3863 1.134 20.583L4.7955 22.6755C5.43554 23.0413 6.14544 23.2682 6.879 23.3415L10.9515 23.748C11.3685 23.7897 11.7897 23.7435 12.1878 23.6125C12.586 23.4815 12.9522 23.2685 13.263 22.9873C13.5737 22.706 13.8221 22.3628 13.9921 21.9797C14.1621 21.5966 14.25 21.1821 14.25 20.763V19.8915C14.377 19.7978 14.501 19.7003 14.622 19.599C14.9655 19.3125 15.474 18.834 15.696 18.279C15.915 17.733 15.894 17.01 15.858 16.542L15.84 16.344C16.2488 16.1843 16.5893 15.8873 16.803 15.504C17.002 15.1589 17.1477 14.7857 17.235 14.397C17.328 13.932 17.322 13.2885 17.304 12.822L17.301 12.75Z" fill="white"/>
</svg>
