<svg width="32" height="32" viewBox="0 0 32 32" fill="none" xmlns="http://www.w3.org/2000/svg">
<rect width="32" height="32" transform="translate(0 0.000488281)" fill="#0D55AA"/>
<path d="M20.5 13.0005C20.5 14.194 20.0259 15.3386 19.182 16.1825C18.3381 17.0264 17.1935 17.5005 16 17.5005C14.8065 17.5005 13.6619 17.0264 12.818 16.1825C11.9741 15.3386 11.5 14.194 11.5 13.0005C11.5 11.807 11.9741 10.6624 12.818 9.81851C13.6619 8.97459 14.8065 8.50049 16 8.50049C17.1935 8.50049 18.3381 8.97459 19.182 9.81851C20.0259 10.6624 20.5 11.807 20.5 13.0005Z" fill="white"/>
<path fill-rule="evenodd" clip-rule="evenodd" d="M4 16.0005C4 12.8179 5.26428 9.76564 7.51472 7.51521C9.76516 5.26477 12.8174 4.00049 16 4.00049C19.1826 4.00049 22.2348 5.26477 24.4853 7.51521C26.7357 9.76564 28 12.8179 28 16.0005C28 19.1831 26.7357 22.2353 24.4853 24.4858C22.2348 26.7362 19.1826 28.0005 16 28.0005C12.8174 28.0005 9.76516 26.7362 7.51472 24.4858C5.26428 22.2353 4 19.1831 4 16.0005ZM16 5.50049C14.0227 5.50059 12.0855 6.05903 10.4116 7.11153C8.73766 8.16403 7.39492 9.6678 6.53795 11.4498C5.68097 13.2318 5.34458 15.2195 5.5675 17.1842C5.79042 19.149 6.56358 21.0108 7.798 22.5555C8.863 20.8395 11.2075 19.0005 16 19.0005C20.7925 19.0005 23.1355 20.838 24.202 22.5555C25.4364 21.0108 26.2096 19.149 26.4325 17.1842C26.6554 15.2195 26.319 13.2318 25.4621 11.4498C24.6051 9.6678 23.2623 8.16403 21.5884 7.11153C19.9145 6.05903 17.9773 5.50059 16 5.50049Z" fill="white"/>
</svg>
