<svg width="40" height="40" viewBox="0 0 40 40" fill="none" xmlns="http://www.w3.org/2000/svg">
<path d="M0.5 20C0.5 9.23045 9.23045 0.5 20 0.5C30.7696 0.5 39.5 9.23045 39.5 20C39.5 30.7696 30.7696 39.5 20 39.5C9.23045 39.5 0.5 30.7696 0.5 20Z" fill="#0D55AA" stroke="white"/>
<path d="M28.2941 15.3749C28.4055 15.2451 28.2603 15.0754 28.0955 15.1362C27.7276 15.2719 27.3915 15.3613 26.8943 15.4166C27.5058 15.0761 27.7902 14.5894 28.0215 13.9933C28.0773 13.8496 27.909 13.7191 27.7641 13.7878C27.1755 14.0668 26.5405 14.2739 25.8726 14.3962C25.2125 13.742 24.2716 13.3333 23.2308 13.3333C21.2321 13.3333 19.6114 14.8406 19.6114 16.6992C19.6114 16.9631 19.6437 17.2201 19.7047 17.4662C16.8317 17.3324 14.2698 16.1033 12.4899 14.2188C12.3679 14.0896 12.1466 14.1067 12.0706 14.2643C11.868 14.6846 11.755 15.1508 11.755 15.6417C11.755 16.8093 12.3938 17.8394 13.3648 18.4431C12.9294 18.43 12.5131 18.3452 12.1294 18.2012C11.9426 18.1311 11.7284 18.2543 11.7535 18.4427C11.9462 19.8893 13.1174 21.0827 14.6291 21.3647C14.3255 21.4419 14.0058 21.4829 13.675 21.4829C13.5948 21.4829 13.5153 21.4804 13.4365 21.4756C13.236 21.4632 13.0731 21.6425 13.1591 21.8141C13.7262 22.9459 14.9507 23.7361 16.3756 23.7607C15.137 24.6637 13.5765 25.2017 11.8807 25.2017C11.6716 25.2017 11.5819 25.4705 11.7674 25.5617C13.2001 26.2659 14.8317 26.6666 16.5653 26.6666C23.2227 26.6666 26.8627 21.5377 26.8627 17.0896C26.8627 16.944 26.859 16.7983 26.8525 16.6541C27.3928 16.2911 27.8785 15.8594 28.2941 15.3749Z" fill="white"/>
</svg>
